<svg xmlns="http://www.w3.org/2000/svg" viewBox="0 0 940 470" font-family="Segoe UI, Helvetica, Arial, sans-serif">
<rect width="940" height="470" fill="#FFFFFF"/>
<text x="44" y="42" font-size="22" font-weight="700" fill="#1B2B33">Hill-type muscle model</text>
<line x1="96.0" y1="108" x2="96.0" y2="372" stroke="#EDF1F3" stroke-width="1"/>
<line x1="172.1" y1="108" x2="172.1" y2="372" stroke="#EDF1F3" stroke-width="1"/>
<line x1="248.2" y1="108" x2="248.2" y2="372" stroke="#EDF1F3" stroke-width="1"/>
<line x1="324.3" y1="108" x2="324.3" y2="372" stroke="#EDF1F3" stroke-width="1"/>
<line x1="400.3" y1="108" x2="400.3" y2="372" stroke="#EDF1F3" stroke-width="1"/>
<line x1="96" y1="372.0" x2="446" y2="372.0" stroke="#EDF1F3" stroke-width="1"/>
<line x1="96" y1="284.0" x2="446" y2="284.0" stroke="#EDF1F3" stroke-width="1"/>
<line x1="96" y1="196.0" x2="446" y2="196.0" stroke="#EDF1F3" stroke-width="1"/>
<line x1="96" y1="108.0" x2="446" y2="108.0" stroke="#EDF1F3" stroke-width="1"/>
<line x1="96" y1="108" x2="96" y2="372" stroke="#5A7480" stroke-width="1.6"/>
<line x1="96" y1="372" x2="446" y2="372" stroke="#5A7480" stroke-width="1.6"/>
<line x1="96.0" y1="372" x2="96.0" y2="377" stroke="#5A7480" stroke-width="1.3"/>
<text x="96.0" y="391" text-anchor="middle" font-size="10.5" fill="#5A7480">0.5</text>
<line x1="172.1" y1="372" x2="172.1" y2="377" stroke="#5A7480" stroke-width="1.3"/>
<text x="172.1" y="391" text-anchor="middle" font-size="10.5" fill="#5A7480">0.75</text>
<line x1="248.2" y1="372" x2="248.2" y2="377" stroke="#5A7480" stroke-width="1.3"/>
<text x="248.2" y="391" text-anchor="middle" font-size="10.5" fill="#5A7480">1</text>
<line x1="324.3" y1="372" x2="324.3" y2="377" stroke="#5A7480" stroke-width="1.3"/>
<text x="324.3" y="391" text-anchor="middle" font-size="10.5" fill="#5A7480">1.25</text>
<line x1="400.3" y1="372" x2="400.3" y2="377" stroke="#5A7480" stroke-width="1.3"/>
<text x="400.3" y="391" text-anchor="middle" font-size="10.5" fill="#5A7480">1.5</text>
<line x1="91" y1="372.0" x2="96" y2="372.0" stroke="#5A7480" stroke-width="1.3"/>
<text x="87" y="375.5" text-anchor="end" font-size="10.5" fill="#5A7480">0</text>
<line x1="91" y1="284.0" x2="96" y2="284.0" stroke="#5A7480" stroke-width="1.3"/>
<text x="87" y="287.5" text-anchor="end" font-size="10.5" fill="#5A7480">0.5</text>
<line x1="91" y1="196.0" x2="96" y2="196.0" stroke="#5A7480" stroke-width="1.3"/>
<text x="87" y="199.5" text-anchor="end" font-size="10.5" fill="#5A7480">1</text>
<line x1="91" y1="108.0" x2="96" y2="108.0" stroke="#5A7480" stroke-width="1.3"/>
<text x="87" y="111.5" text-anchor="end" font-size="10.5" fill="#5A7480">1.5</text>
<text x="271.0" y="410" text-anchor="middle" font-family="Georgia, 'Times New Roman', serif" font-style="italic" fill="#1B2B33"><tspan font-size="13.0">L / L</tspan><tspan dy="3.1" font-size="8.6">0</tspan></text>
<text x="52" y="240.0" text-anchor="middle" font-size="12.5" fill="#1B2B33" transform="rotate(-90 52 240.0)">normalized force</text>
<text x="96" y="92" font-size="14.5" font-weight="700" fill="#1B2B33">Force–length</text>
<line x1="248.2" y1="185.4" x2="248.2" y2="372" stroke="#AFC0C7" stroke-width="1.3" stroke-dasharray="4 3"/>
<polyline points="96.0,361.1 98.2,360.2 100.4,359.2 102.6,358.2 104.8,357.1 106.9,355.9 109.1,354.7 111.3,353.4 113.5,352.0 115.7,350.6 117.9,349.0 120.1,347.4 122.2,345.7 124.4,344.0 126.6,342.1 128.8,340.1 131.0,338.1 133.2,336.0 135.4,333.7 137.6,331.4 139.8,329.0 141.9,326.5 144.1,324.0 146.3,321.3 148.5,318.5 150.7,315.7 152.9,312.8 155.1,309.8 157.2,306.7 159.4,303.6 161.6,300.3 163.8,297.1 166.0,293.7 168.2,290.3 170.4,286.8 172.6,283.4 174.8,279.8 176.9,276.2 179.1,272.7 181.3,269.1 183.5,265.4 185.7,261.8 187.9,258.2 190.1,254.6 192.2,251.1 194.4,247.5 196.6,244.0 198.8,240.6 201.0,237.2 203.2,233.9 205.4,230.7 207.6,227.6 209.8,224.6 211.9,221.6 214.1,218.9 216.3,216.2 218.5,213.6 220.7,211.2 222.9,209.0 225.1,206.9 227.3,205.0 229.4,203.3 231.6,201.7 233.8,200.3 236.0,199.1 238.2,198.1 240.4,197.3 242.6,196.7 244.7,196.2 246.9,196.0 249.1,195.5 251.3,194.6 253.5,193.9 255.7,193.4 257.9,193.0 260.1,192.8 262.2,192.8 264.4,193.0 266.6,193.3 268.8,193.8 271.0,194.4 273.2,195.2 275.4,196.1 277.6,197.2 279.8,198.4 281.9,199.7 284.1,201.1 286.3,202.6 288.5,204.2 290.7,205.9 292.9,207.7 295.1,209.5 297.2,211.4 299.4,213.3 301.6,215.2 303.8,217.2 306.0,219.2 308.2,221.2 310.4,223.1 312.6,225.1 314.8,227.0 316.9,229.0 319.1,230.8 321.3,232.7 323.5,234.4 325.7,236.1 327.9,237.8 330.1,239.3 332.2,240.8 334.4,242.2 336.6,243.5 338.8,244.7 341.0,245.8 343.2,246.8 345.4,247.7 347.6,248.4 349.7,249.1 351.9,249.6 354.1,250.1 356.3,250.4 358.5,250.6 360.7,250.6 362.9,250.5 365.1,250.4 367.2,250.0 369.4,249.6 371.6,249.1 373.8,248.4 376.0,247.6 378.2,246.7 380.4,245.6 382.6,244.5 384.8,243.2 386.9,241.8 389.1,240.3 391.3,238.7 393.5,237.0 395.7,235.2 397.9,233.3 400.1,231.3 402.3,229.2 404.4,227.0 406.6,224.6 408.8,222.2 411.0,219.7 413.2,217.1 415.4,214.5 417.6,211.7 419.8,208.8 421.9,205.9 424.1,202.9 426.3,199.8 428.5,196.6 430.7,193.3 432.9,190.0 435.1,186.6 437.2,183.1 439.4,179.5 441.6,175.9 443.8,172.2 446.0,168.4" fill="none" stroke="#3D5663" stroke-width="1.8" stroke-linejoin="round" stroke-linecap="round" stroke-dasharray="2 4"/>
<polyline points="96.0,372.0 98.2,372.0 100.4,372.0 102.6,372.0 104.8,372.0 106.9,372.0 109.1,372.0 111.3,372.0 113.5,372.0 115.7,372.0 117.9,372.0 120.1,372.0 122.2,372.0 124.4,372.0 126.6,372.0 128.8,372.0 131.0,372.0 133.2,372.0 135.4,372.0 137.6,372.0 139.8,372.0 141.9,372.0 144.1,372.0 146.3,372.0 148.5,372.0 150.7,372.0 152.9,372.0 155.1,372.0 157.2,372.0 159.4,372.0 161.6,372.0 163.8,372.0 166.0,372.0 168.2,372.0 170.4,372.0 172.6,372.0 174.8,372.0 176.9,372.0 179.1,372.0 181.3,372.0 183.5,372.0 185.7,372.0 187.9,372.0 190.1,372.0 192.2,372.0 194.4,372.0 196.6,372.0 198.8,372.0 201.0,372.0 203.2,372.0 205.4,372.0 207.6,372.0 209.8,372.0 211.9,372.0 214.1,372.0 216.3,372.0 218.5,372.0 220.7,372.0 222.9,372.0 225.1,372.0 227.3,372.0 229.4,372.0 231.6,372.0 233.8,372.0 236.0,372.0 238.2,372.0 240.4,372.0 242.6,372.0 244.7,372.0 246.9,372.0 249.1,371.5 251.3,370.4 253.5,369.3 255.7,368.2 257.9,367.0 260.1,365.9 262.2,364.7 264.4,363.5 266.6,362.2 268.8,361.0 271.0,359.8 273.2,358.5 275.4,357.2 277.6,355.9 279.8,354.5 281.9,353.2 284.1,351.8 286.3,350.4 288.5,349.0 290.7,347.6 292.9,346.2 295.1,344.7 297.2,343.2 299.4,341.7 301.6,340.2 303.8,338.6 306.0,337.0 308.2,335.4 310.4,333.8 312.6,332.1 314.8,330.5 316.9,328.8 319.1,327.0 321.3,325.3 323.5,323.5 325.7,321.7 327.9,319.9 330.1,318.1 332.2,316.2 334.4,314.3 336.6,312.3 338.8,310.4 341.0,308.4 343.2,306.4 345.4,304.3 347.6,302.3 349.7,300.2 351.9,298.0 354.1,295.8 356.3,293.7 358.5,291.4 360.7,289.2 362.9,286.9 365.1,284.5 367.2,282.2 369.4,279.8 371.6,277.3 373.8,274.9 376.0,272.4 378.2,269.8 380.4,267.3 382.6,264.7 384.8,262.0 386.9,259.3 389.1,256.6 391.3,253.8 393.5,251.0 395.7,248.2 397.9,245.3 400.1,242.3 402.3,239.4 404.4,236.4 406.6,233.3 408.8,230.2 411.0,227.0 413.2,223.8 415.4,220.6 417.6,217.3 419.8,214.0 421.9,210.6 424.1,207.2 426.3,203.7 428.5,200.2 430.7,196.6 432.9,192.9 435.1,189.2 437.2,185.5 439.4,181.7 441.6,177.9 443.8,174.0 446.0,170.0" fill="none" stroke="#B07D2B" stroke-width="2.4" stroke-linejoin="round" stroke-linecap="round" stroke-dasharray="7 5"/>
<polyline points="96.0,361.1 98.2,360.2 100.4,359.2 102.6,358.2 104.8,357.1 106.9,355.9 109.1,354.7 111.3,353.4 113.5,352.0 115.7,350.6 117.9,349.0 120.1,347.4 122.2,345.7 124.4,344.0 126.6,342.1 128.8,340.1 131.0,338.1 133.2,336.0 135.4,333.7 137.6,331.4 139.8,329.0 141.9,326.5 144.1,324.0 146.3,321.3 148.5,318.5 150.7,315.7 152.9,312.8 155.1,309.8 157.2,306.7 159.4,303.6 161.6,300.3 163.8,297.1 166.0,293.7 168.2,290.3 170.4,286.8 172.6,283.4 174.8,279.8 176.9,276.2 179.1,272.7 181.3,269.1 183.5,265.4 185.7,261.8 187.9,258.2 190.1,254.6 192.2,251.1 194.4,247.5 196.6,244.0 198.8,240.6 201.0,237.2 203.2,233.9 205.4,230.7 207.6,227.6 209.8,224.6 211.9,221.6 214.1,218.9 216.3,216.2 218.5,213.6 220.7,211.2 222.9,209.0 225.1,206.9 227.3,205.0 229.4,203.3 231.6,201.7 233.8,200.3 236.0,199.1 238.2,198.1 240.4,197.3 242.6,196.7 244.7,196.2 246.9,196.0 249.1,196.0 251.3,196.2 253.5,196.6 255.7,197.2 257.9,198.0 260.1,199.0 262.2,200.1 264.4,201.5 266.6,203.0 268.8,204.8 271.0,206.7 273.2,208.7 275.4,210.9 277.6,213.3 279.8,215.8 281.9,218.5 284.1,221.3 286.3,224.2 288.5,227.2 290.7,230.3 292.9,233.5 295.1,236.8 297.2,240.2 299.4,243.6 301.6,247.1 303.8,250.6 306.0,254.2 308.2,257.7 310.4,261.3 312.6,265.0 314.8,268.6 316.9,272.2 319.1,275.8 321.3,279.4 323.5,282.9 325.7,286.4 327.9,289.9 330.1,293.3 332.2,296.6 334.4,299.9 336.6,303.1 338.8,306.3 341.0,309.4 343.2,312.4 345.4,315.3 347.6,318.2 349.7,320.9 351.9,323.6 354.1,326.2 356.3,328.7 358.5,331.1 360.7,333.5 362.9,335.7 365.1,337.8 367.2,339.9 369.4,341.8 371.6,343.7 373.8,345.5 376.0,347.2 378.2,348.8 380.4,350.4 382.6,351.8 384.8,353.2 386.9,354.5 389.1,355.8 391.3,356.9 393.5,358.0 395.7,359.1 397.9,360.0 400.1,360.9 402.3,361.8 404.4,362.6 406.6,363.3 408.8,364.0 411.0,364.7 413.2,365.3 415.4,365.8 417.6,366.4 419.8,366.8 421.9,367.3 424.1,367.7 426.3,368.1 428.5,368.4 430.7,368.8 432.9,369.1 435.1,369.3 437.2,369.6 439.4,369.8 441.6,370.0 443.8,370.2 446.0,370.4" fill="none" stroke="#0F7B82" stroke-width="2.8" stroke-linejoin="round" stroke-linecap="round"/>
<circle cx="248.2" cy="196.0" r="3.6" fill="#0F7B82"/>
<text x="248.2" y="187.0" text-anchor="middle" font-family="Georgia, 'Times New Roman', serif" font-style="italic" font-size="11.5" fill="#1B2B33"><tspan font-size="11.5">L</tspan><tspan dy="2.8" font-size="7.6">0</tspan></text>
<text x="163.0" y="262.9" font-size="11.5" font-weight="600" fill="#0F7B82">active</text>
<text x="376.0" y="319.2" font-size="11.5" font-weight="600" fill="#B07D2B">passive</text>
<text x="339.5" y="167.8" font-size="11" font-weight="600" fill="#3D5663">total</text>
<line x1="556.0" y1="108" x2="556.0" y2="372" stroke="#EDF1F3" stroke-width="1"/>
<line x1="641.0" y1="108" x2="641.0" y2="372" stroke="#EDF1F3" stroke-width="1"/>
<line x1="726.0" y1="108" x2="726.0" y2="372" stroke="#EDF1F3" stroke-width="1"/>
<line x1="811.0" y1="108" x2="811.0" y2="372" stroke="#EDF1F3" stroke-width="1"/>
<line x1="896.0" y1="108" x2="896.0" y2="372" stroke="#EDF1F3" stroke-width="1"/>
<line x1="556" y1="372.0" x2="896" y2="372.0" stroke="#EDF1F3" stroke-width="1"/>
<line x1="556" y1="289.5" x2="896" y2="289.5" stroke="#EDF1F3" stroke-width="1"/>
<line x1="556" y1="207.0" x2="896" y2="207.0" stroke="#EDF1F3" stroke-width="1"/>
<line x1="556" y1="124.5" x2="896" y2="124.5" stroke="#EDF1F3" stroke-width="1"/>
<line x1="556" y1="108" x2="556" y2="372" stroke="#5A7480" stroke-width="1.6"/>
<line x1="556" y1="372" x2="896" y2="372" stroke="#5A7480" stroke-width="1.6"/>
<line x1="556.0" y1="372" x2="556.0" y2="377" stroke="#5A7480" stroke-width="1.3"/>
<text x="556.0" y="391" text-anchor="middle" font-size="10.5" fill="#5A7480">-1</text>
<line x1="641.0" y1="372" x2="641.0" y2="377" stroke="#5A7480" stroke-width="1.3"/>
<text x="641.0" y="391" text-anchor="middle" font-size="10.5" fill="#5A7480">-0.5</text>
<line x1="726.0" y1="372" x2="726.0" y2="377" stroke="#5A7480" stroke-width="1.3"/>
<text x="726.0" y="391" text-anchor="middle" font-size="10.5" fill="#5A7480">0</text>
<line x1="811.0" y1="372" x2="811.0" y2="377" stroke="#5A7480" stroke-width="1.3"/>
<text x="811.0" y="391" text-anchor="middle" font-size="10.5" fill="#5A7480">0.5</text>
<line x1="896.0" y1="372" x2="896.0" y2="377" stroke="#5A7480" stroke-width="1.3"/>
<text x="896.0" y="391" text-anchor="middle" font-size="10.5" fill="#5A7480">1</text>
<line x1="551" y1="372.0" x2="556" y2="372.0" stroke="#5A7480" stroke-width="1.3"/>
<text x="547" y="375.5" text-anchor="end" font-size="10.5" fill="#5A7480">0</text>
<line x1="551" y1="289.5" x2="556" y2="289.5" stroke="#5A7480" stroke-width="1.3"/>
<text x="547" y="293.0" text-anchor="end" font-size="10.5" fill="#5A7480">0.5</text>
<line x1="551" y1="207.0" x2="556" y2="207.0" stroke="#5A7480" stroke-width="1.3"/>
<text x="547" y="210.5" text-anchor="end" font-size="10.5" fill="#5A7480">1</text>
<line x1="551" y1="124.5" x2="556" y2="124.5" stroke="#5A7480" stroke-width="1.3"/>
<text x="547" y="128.0" text-anchor="end" font-size="10.5" fill="#5A7480">1.5</text>
<text x="726.0" y="410" text-anchor="middle" font-family="Georgia, 'Times New Roman', serif" font-style="italic" fill="#1B2B33"><tspan font-size="13.0">v / v</tspan><tspan dy="3.1" font-size="8.6">max</tspan></text>
<text x="512" y="240.0" text-anchor="middle" font-size="12.5" fill="#1B2B33" transform="rotate(-90 512 240.0)">normalized force</text>
<text x="556" y="92" font-size="14.5" font-weight="700" fill="#1B2B33">Force–velocity</text>
<line x1="726.0" y1="108" x2="726.0" y2="372" stroke="#AFC0C7" stroke-width="1.3" stroke-dasharray="4 3"/>
<line x1="556" y1="207.0" x2="726.0" y2="207.0" stroke="#AFC0C7" stroke-width="1.1" stroke-dasharray="4 3"/>
<polyline points="556.0,372.0 557.1,371.8 558.1,371.6 559.2,371.4 560.2,371.2 561.3,370.9 562.4,370.7 563.4,370.5 564.5,370.3 565.6,370.1 566.6,369.8 567.7,369.6 568.8,369.4 569.8,369.1 570.9,368.9 571.9,368.7 573.0,368.4 574.1,368.2 575.1,367.9 576.2,367.7 577.2,367.4 578.3,367.2 579.4,366.9 580.4,366.6 581.5,366.4 582.6,366.1 583.6,365.8 584.7,365.6 585.8,365.3 586.8,365.0 587.9,364.7 588.9,364.4 590.0,364.1 591.1,363.8 592.1,363.6 593.2,363.2 594.2,362.9 595.3,362.6 596.4,362.3 597.4,362.0 598.5,361.7 599.6,361.4 600.6,361.0 601.7,360.7 602.8,360.4 603.8,360.0 604.9,359.7 605.9,359.3 607.0,359.0 608.1,358.6 609.1,358.2 610.2,357.9 611.2,357.5 612.3,357.1 613.4,356.7 614.4,356.4 615.5,356.0 616.6,355.6 617.6,355.2 618.7,354.7 619.8,354.3 620.8,353.9 621.9,353.5 622.9,353.0 624.0,352.6 625.1,352.1 626.1,351.7 627.2,351.2 628.2,350.8 629.3,350.3 630.4,349.8 631.4,349.3 632.5,348.8 633.6,348.3 634.6,347.8 635.7,347.2 636.8,346.7 637.8,346.2 638.9,345.6 639.9,345.1 641.0,344.5 642.1,343.9 643.1,343.3 644.2,342.7 645.2,342.1 646.3,341.5 647.4,340.9 648.4,340.2 649.5,339.6 650.6,338.9 651.6,338.2 652.7,337.6 653.8,336.9 654.8,336.1 655.9,335.4 656.9,334.7 658.0,333.9 659.1,333.2 660.1,332.4 661.2,331.6 662.2,330.8 663.3,329.9 664.4,329.1 665.4,328.2 666.5,327.3 667.6,326.4 668.6,325.5 669.7,324.5 670.8,323.6 671.8,322.6 672.9,321.6 673.9,320.6 675.0,319.5 676.1,318.4 677.1,317.3 678.2,316.2 679.2,315.0 680.3,313.9 681.4,312.6 682.4,311.4 683.5,310.1 684.6,308.8 685.6,307.5 686.7,306.1 687.8,304.7 688.8,303.2 689.9,301.8 690.9,300.2 692.0,298.7 693.1,297.1 694.1,295.4 695.2,293.7 696.2,291.9 697.3,290.1 698.4,288.2 699.4,286.3 700.5,284.3 701.6,282.3 702.6,280.2 703.7,278.0 704.8,275.8 705.8,273.4 706.9,271.0 707.9,268.5 709.0,265.9 710.1,263.2 711.1,260.5 712.2,257.6 713.2,254.6 714.3,251.5 715.4,248.2 716.4,244.9 717.5,241.4 718.6,237.7 719.6,233.9 720.7,229.9 721.8,225.8 722.8,221.4 723.9,216.8 724.9,212.0 726.0,207.0" fill="none" stroke="#0F7B82" stroke-width="2.8" stroke-linejoin="round" stroke-linecap="round"/>
<polyline points="726.0,207.0 727.1,205.0 728.1,203.1 729.2,201.2 730.2,199.5 731.3,197.8 732.4,196.2 733.4,194.7 734.5,193.3 735.6,191.8 736.6,190.5 737.7,189.2 738.8,188.0 739.8,186.8 740.9,185.6 741.9,184.5 743.0,183.4 744.1,182.4 745.1,181.4 746.2,180.4 747.2,179.5 748.3,178.6 749.4,177.7 750.4,176.9 751.5,176.1 752.6,175.3 753.6,174.5 754.7,173.8 755.8,173.0 756.8,172.3 757.9,171.6 758.9,171.0 760.0,170.3 761.1,169.7 762.1,169.1 763.2,168.5 764.2,167.9 765.3,167.4 766.4,166.8 767.4,166.3 768.5,165.8 769.6,165.2 770.6,164.7 771.7,164.3 772.8,163.8 773.8,163.3 774.9,162.9 775.9,162.4 777.0,162.0 778.1,161.6 779.1,161.2 780.2,160.8 781.2,160.4 782.3,160.0 783.4,159.6 784.4,159.2 785.5,158.9 786.6,158.5 787.6,158.2 788.7,157.8 789.8,157.5 790.8,157.2 791.9,156.9 792.9,156.5 794.0,156.2 795.1,155.9 796.1,155.6 797.2,155.3 798.2,155.1 799.3,154.8 800.4,154.5 801.4,154.2 802.5,154.0 803.6,153.7 804.6,153.4 805.7,153.2 806.8,152.9 807.8,152.7 808.9,152.5 809.9,152.2 811.0,152.0 812.1,151.8 813.1,151.5 814.2,151.3 815.2,151.1 816.3,150.9 817.4,150.7 818.4,150.5 819.5,150.3 820.6,150.1 821.6,149.9 822.7,149.7 823.8,149.5 824.8,149.3 825.9,149.1 826.9,148.9 828.0,148.8 829.1,148.6 830.1,148.4 831.2,148.2 832.2,148.1 833.3,147.9 834.4,147.7 835.4,147.6 836.5,147.4 837.6,147.3 838.6,147.1 839.7,146.9 840.8,146.8 841.8,146.6 842.9,146.5 843.9,146.4 845.0,146.2 846.1,146.1 847.1,145.9 848.2,145.8 849.2,145.7 850.3,145.5 851.4,145.4 852.4,145.3 853.5,145.1 854.6,145.0 855.6,144.9 856.7,144.7 857.8,144.6 858.8,144.5 859.9,144.4 860.9,144.3 862.0,144.1 863.1,144.0 864.1,143.9 865.2,143.8 866.2,143.7 867.3,143.6 868.4,143.5 869.4,143.4 870.5,143.2 871.6,143.1 872.6,143.0 873.7,142.9 874.8,142.8 875.8,142.7 876.9,142.6 877.9,142.5 879.0,142.4 880.1,142.3 881.1,142.2 882.2,142.1 883.2,142.1 884.3,142.0 885.4,141.9 886.4,141.8 887.5,141.7 888.6,141.6 889.6,141.5 890.7,141.4 891.8,141.3 892.8,141.3 893.9,141.2 894.9,141.1 896.0,141.0" fill="none" stroke="#B14A3B" stroke-width="2.8" stroke-linejoin="round" stroke-linecap="round"/>
<circle cx="726.0" cy="207.0" r="3.8" fill="#1B2B33"/>
<text x="734.0" y="199.0" font-family="Georgia, 'Times New Roman', serif" font-style="italic" font-size="12" fill="#1B2B33"><tspan font-size="12.0">F</tspan><tspan dy="2.9" font-size="7.9">0</tspan><tspan dy="-2.9" font-size="12.0"> (isometric)</tspan></text>
<text x="632.5" y="107.0" text-anchor="middle" font-size="10.5" font-weight="600" fill="#0F7B82">← shortening (concentric)</text>
<text x="819.5" y="107.0" text-anchor="middle" font-size="10.5" font-weight="600" fill="#B14A3B">lengthening (eccentric) →</text>
</svg>